<svg preserveAspectRatio="none" overflow="visible" style="display: block;" width="17.7101" height="17.7104" viewBox="0 0 17.7101 17.7104" fill="none" xmlns="http://www.w3.org/2000/svg">
<g id="elements">
<path id="Tone" opacity="0.4" d="M9.76345 15.2127C13.3963 15.2127 19.2997 12.4881 16.121 0.681226C15.0614 1.74081 13.4705 3.78452 9.76345 4.3141C6.58469 4.76821 4.31414 6.84334 4.31414 9.76341C4.31414 12.773 6.75388 15.2127 9.76345 15.2127Z" fill="#079455"/>
<path id="Icon" d="M16.7786 0.504095C16.7154 0.269246 16.5318 0.0859275 16.2968 0.0231203C16.0618 -0.0396869 15.8112 0.0275476 15.6392 0.199524C15.5243 0.314442 15.4054 0.438056 15.2807 0.567821C14.2265 1.66405 12.7502 3.19928 9.66703 3.63973C6.25708 4.12687 3.63289 6.40858 3.63289 9.76336C3.63289 10.5128 3.76764 11.2318 4.0145 11.8968C3.24088 12.2587 2.58303 12.6756 2.03398 13.1576C0.883922 14.1673 0.258779 15.4208 0.00938789 16.9172C-0.0524584 17.2882 0.198223 17.6392 0.569301 17.7011C0.940379 17.7629 1.29133 17.5122 1.35318 17.1411C1.5579 15.9128 2.04891 14.9574 2.93278 14.1814C3.8356 13.3888 5.19438 12.7431 7.20402 12.2407C10.3253 11.4603 12.4892 9.50474 13.9482 7.48787C14.1687 7.18307 14.1004 6.75723 13.7956 6.53673C13.4908 6.31624 13.0649 6.38458 12.8444 6.68939C11.5123 8.53094 9.59524 10.2386 6.8736 10.919C6.30467 11.0613 5.77354 11.2171 5.27902 11.3882C5.09543 10.8816 4.99521 10.3347 4.99521 9.76336C4.99521 7.278 6.91211 5.40945 9.85969 4.98837C12.9114 4.55241 14.6472 3.13414 15.7562 2.03259C16.9233 7.12759 16.2129 10.1902 14.9412 11.98C13.5736 13.9047 11.4326 14.5315 9.76336 14.5315C8.89374 14.5315 8.08042 14.2993 7.37978 13.894C7.05414 13.7057 6.63746 13.8169 6.44908 14.1426C6.26071 14.4682 6.37199 14.8849 6.69763 15.0733C7.60003 15.5953 8.64786 15.8938 9.76336 15.8938C11.727 15.8938 14.3541 15.1583 16.0518 12.769C17.7505 10.3782 18.3944 6.50557 16.7786 0.504095Z" fill="#079455"/>
</g>
</svg>
