<svg preserveAspectRatio="none" overflow="visible" style="display: block;" width="32" height="32" viewBox="0 0 32 32" fill="none" xmlns="http://www.w3.org/2000/svg">
<g id="recycle">
<path id="Vector" d="M21.3333 24.6667V27.1091C21.3333 27.8307 21.3333 28.1914 21.1437 28.3416C21.0845 28.3884 21.0155 28.4212 20.9419 28.4376C20.7058 28.4901 20.4258 28.2626 19.8658 27.8076L16.8597 25.3652C16.509 25.0802 16.3336 24.9377 16.3008 24.755C16.2903 24.6966 16.2903 24.6367 16.3008 24.5783C16.3336 24.3956 16.509 24.2531 16.8597 23.9682L19.8658 21.5257C20.4258 21.0707 20.7058 20.8432 20.9419 20.8958C21.0155 20.9121 21.0845 20.945 21.1437 20.9918C21.3333 21.1419 21.3333 21.5027 21.3333 22.2242V24.6667ZM21.3333 24.6667H22.8325C24.8463 24.6667 25.8533 24.6667 26.4987 24.4205C28.2168 23.7653 29.2064 21.961 28.8354 20.16C28.696 19.4835 28.1547 18.6344 27.0722 16.9362M21.5433 8.10786L23.6089 6.80452C24.2192 6.4195 24.5243 6.22699 24.7525 6.3073C24.8236 6.33233 24.8882 6.37314 24.9413 6.42667C25.1118 6.59834 25.0688 6.95653 24.9828 7.67293L24.5212 11.5186C24.4674 11.9673 24.4404 12.1917 24.3035 12.3169C24.2596 12.3569 24.209 12.3889 24.154 12.4112C23.982 12.4809 23.7679 12.4086 23.3397 12.2641L19.67 11.0251C18.9864 10.7942 18.6446 10.6788 18.563 10.4511C18.5375 10.3801 18.5285 10.3042 18.5365 10.2293C18.5623 9.98872 18.8674 9.79621 19.4776 9.41119L21.5433 8.10786ZM21.5433 8.10786L21.547 8.1055L20.4168 6.31802C19.3151 4.57562 18.7643 3.70442 18.1458 3.27228C16.8566 2.37143 15.1422 2.3708 13.8523 3.2707C13.2335 3.70239 12.682 4.57318 11.579 6.31477M10.6667 24.6667C7.31461 24.6667 5.63859 24.6667 4.6762 24.0014C3.70769 23.3319 3.10983 22.2465 3.06167 21.0701C3.01381 19.9011 3.90964 18.4846 5.7013 15.6515L5.89692 15.3422M4.03234 12.4191L7.68611 11.1796C8.11299 11.0348 8.32643 10.9624 8.49829 11.0315C8.5533 11.0537 8.60393 11.0854 8.64782 11.1253C8.78495 11.2498 8.81276 11.4735 8.86838 11.9208L9.35007 15.795C9.43996 16.5179 9.4849 16.8794 9.31385 17.0519C9.26055 17.1057 9.19573 17.1467 9.12429 17.1718C8.89502 17.2522 8.5878 17.0565 7.97338 16.6651L3.83791 14.0305C3.2333 13.6453 2.93099 13.4527 2.9058 13.2128C2.89794 13.138 2.90707 13.0624 2.9325 12.9916C3.01402 12.7646 3.35346 12.6494 4.03234 12.4191Z" stroke="#1212FF" stroke-width="1.5" stroke-linecap="round" stroke-linejoin="round"/>
<g id="Vector_2">
<path d="M4.03234 12.4191L7.68611 11.1796C8.11299 11.0348 8.32643 10.9624 8.49829 11.0315C8.5533 11.0537 8.60393 11.0854 8.64782 11.1253C8.78495 11.2498 8.81276 11.4735 8.86838 11.9208L9.35007 15.795C9.43996 16.5179 9.4849 16.8794 9.31385 17.0519C9.26055 17.1057 9.19573 17.1467 9.12429 17.1718C8.89502 17.2522 8.5878 17.0565 7.97338 16.6651L3.83791 14.0305C3.2333 13.6453 2.93099 13.4527 2.9058 13.2128C2.89794 13.138 2.90707 13.0624 2.9325 12.9916C3.01402 12.7646 3.35346 12.6494 4.03234 12.4191Z" fill="#1212FF" fill-opacity="0.18"/>
<path d="M19.8658 27.8076L16.8597 25.3652C16.509 25.0802 16.3336 24.9377 16.3008 24.755C16.2903 24.6966 16.2903 24.6367 16.3008 24.5783C16.3336 24.3956 16.509 24.2531 16.8597 23.9682L19.8658 21.5257C20.4258 21.0707 20.7058 20.8432 20.9419 20.8958C21.0155 20.9121 21.0845 20.945 21.1436 20.9918C21.3333 21.1419 21.3333 21.5027 21.3333 22.2242V24.6667V27.1091C21.3333 27.8307 21.3333 28.1914 21.1436 28.3416C21.0845 28.3884 21.0155 28.4212 20.9419 28.4376C20.7058 28.4901 20.4258 28.2626 19.8658 27.8076L19.8658 27.8076Z" fill="#1212FF" fill-opacity="0.18"/>
<path d="M24.9828 7.67293L24.5212 11.5186C24.4674 11.9673 24.4404 12.1917 24.3035 12.3169C24.2596 12.3569 24.209 12.3889 24.154 12.4112C23.982 12.4809 23.7679 12.4086 23.3397 12.2641L19.67 11.0251C18.9864 10.7942 18.6446 10.6788 18.563 10.4511C18.5375 10.3801 18.5285 10.3042 18.5365 10.2293C18.5623 9.98872 18.8674 9.79621 19.4776 9.41119L21.5433 8.10786L21.547 8.1055L23.6089 6.80452C24.2192 6.4195 24.5243 6.22699 24.7525 6.3073C24.8236 6.33233 24.8882 6.37314 24.9413 6.42667C25.1118 6.59834 25.0688 6.95653 24.9828 7.67293Z" fill="#1212FF" fill-opacity="0.18"/>
</g>
</g>
</svg>
